<svg xmlns="http://www.w3.org/2000/svg" version="1.1" xmlns:xlink="http://www.w3.org/1999/xlink" xmlns:svgjs="http://svgjs.dev/svgjs" viewBox="0 0 800 800" opacity="0.22" width="800" height="800"><g stroke-width="3.5" stroke="hsla(261, 4%, 25%, 1.00)" fill="none"><line x1="0" y1="0" x2="114.28571428571429" y2="114.28571428571429"></line><line x1="114.28571428571429" y1="0" x2="0" y2="114.28571428571429"></line><line x1="114.28571428571429" y1="0" x2="228.57142857142858" y2="114.28571428571429"></line><line x1="228.57142857142858" y1="0" x2="114.28571428571429" y2="114.28571428571429"></line><line x1="228.57142857142858" y1="0" x2="342.8571428571429" y2="114.28571428571429"></line><line x1="342.8571428571429" y1="0" x2="228.57142857142858" y2="114.28571428571429"></line><line x1="342.8571428571429" y1="0" x2="457.14285714285717" y2="114.28571428571429"></line><line x1="457.14285714285717" y1="0" x2="342.8571428571429" y2="114.28571428571429"></line><line x1="457.14285714285717" y1="0" x2="571.4285714285714" y2="114.28571428571429"></line><line x1="571.4285714285714" y1="0" x2="457.14285714285717" y2="114.28571428571429"></line><line x1="571.4285714285714" y1="0" x2="685.7142857142858" y2="114.28571428571429"></line><line x1="685.7142857142858" y1="0" x2="571.4285714285714" y2="114.28571428571429"></line><line x1="685.7142857142858" y1="0" x2="800.0000000000001" y2="114.28571428571429"></line><line x1="800.0000000000001" y1="0" x2="685.7142857142858" y2="114.28571428571429"></line><line x1="800.0000000000001" y1="0" x2="914.2857142857144" y2="114.28571428571429"></line><line x1="914.2857142857144" y1="0" x2="800.0000000000001" y2="114.28571428571429"></line><line x1="0" y1="66.66666666666667" x2="114.28571428571429" y2="180.95238095238096"></line><line x1="114.28571428571429" y1="66.66666666666667" x2="0" y2="180.95238095238096"></line><line x1="114.28571428571429" y1="66.66666666666667" x2="228.57142857142858" y2="180.95238095238096"></line><line x1="228.57142857142858" y1="66.66666666666667" x2="114.28571428571429" y2="180.95238095238096"></line><line x1="228.57142857142858" y1="66.66666666666667" x2="342.8571428571429" y2="180.95238095238096"></line><line x1="342.8571428571429" y1="66.66666666666667" x2="228.57142857142858" y2="180.95238095238096"></line><line x1="342.8571428571429" y1="66.66666666666667" x2="457.14285714285717" y2="180.95238095238096"></line><line x1="457.14285714285717" y1="66.66666666666667" x2="342.8571428571429" y2="180.95238095238096"></line><line x1="457.14285714285717" y1="66.66666666666667" x2="571.4285714285714" y2="180.95238095238096"></line><line x1="571.4285714285714" y1="66.66666666666667" x2="457.14285714285717" y2="180.95238095238096"></line><line x1="571.4285714285714" y1="66.66666666666667" x2="685.7142857142858" y2="180.95238095238096"></line><line x1="685.7142857142858" y1="66.66666666666667" x2="571.4285714285714" y2="180.95238095238096"></line><line x1="685.7142857142858" y1="66.66666666666667" x2="800.0000000000001" y2="180.95238095238096"></line><line x1="800.0000000000001" y1="66.66666666666667" x2="685.7142857142858" y2="180.95238095238096"></line><line x1="800.0000000000001" y1="66.66666666666667" x2="914.2857142857144" y2="180.95238095238096"></line><line x1="914.2857142857144" y1="66.66666666666667" x2="800.0000000000001" y2="180.95238095238096"></line><line x1="0" y1="133.33333333333334" x2="114.28571428571429" y2="247.61904761904765"></line><line x1="114.28571428571429" y1="133.33333333333334" x2="0" y2="247.61904761904765"></line><line x1="114.28571428571429" y1="133.33333333333334" x2="228.57142857142858" y2="247.61904761904765"></line><line x1="228.57142857142858" y1="133.33333333333334" x2="114.28571428571429" y2="247.61904761904765"></line><line x1="228.57142857142858" y1="133.33333333333334" x2="342.8571428571429" y2="247.61904761904765"></line><line x1="342.8571428571429" y1="133.33333333333334" x2="228.57142857142858" y2="247.61904761904765"></line><line x1="342.8571428571429" y1="133.33333333333334" x2="457.14285714285717" y2="247.61904761904765"></line><line x1="457.14285714285717" y1="133.33333333333334" x2="342.8571428571429" y2="247.61904761904765"></line><line x1="457.14285714285717" y1="133.33333333333334" x2="571.4285714285714" y2="247.61904761904765"></line><line x1="571.4285714285714" y1="133.33333333333334" x2="457.14285714285717" y2="247.61904761904765"></line><line x1="571.4285714285714" y1="133.33333333333334" x2="685.7142857142858" y2="247.61904761904765"></line><line x1="685.7142857142858" y1="133.33333333333334" x2="571.4285714285714" y2="247.61904761904765"></line><line x1="685.7142857142858" y1="133.33333333333334" x2="800.0000000000001" y2="247.61904761904765"></line><line x1="800.0000000000001" y1="133.33333333333334" x2="685.7142857142858" y2="247.61904761904765"></line><line x1="800.0000000000001" y1="133.33333333333334" x2="914.2857142857144" y2="247.61904761904765"></line><line x1="914.2857142857144" y1="133.33333333333334" x2="800.0000000000001" y2="247.61904761904765"></line><line x1="0" y1="200" x2="114.28571428571429" y2="314.2857142857143"></line><line x1="114.28571428571429" y1="200" x2="0" y2="314.2857142857143"></line><line x1="114.28571428571429" y1="200" x2="228.57142857142858" y2="314.2857142857143"></line><line x1="228.57142857142858" y1="200" x2="114.28571428571429" y2="314.2857142857143"></line><line x1="228.57142857142858" y1="200" x2="342.8571428571429" y2="314.2857142857143"></line><line x1="342.8571428571429" y1="200" x2="228.57142857142858" y2="314.2857142857143"></line><line x1="342.8571428571429" y1="200" x2="457.14285714285717" y2="314.2857142857143"></line><line x1="457.14285714285717" y1="200" x2="342.8571428571429" y2="314.2857142857143"></line><line x1="457.14285714285717" y1="200" x2="571.4285714285714" y2="314.2857142857143"></line><line x1="571.4285714285714" y1="200" x2="457.14285714285717" y2="314.2857142857143"></line><line x1="571.4285714285714" y1="200" x2="685.7142857142858" y2="314.2857142857143"></line><line x1="685.7142857142858" y1="200" x2="571.4285714285714" y2="314.2857142857143"></line><line x1="685.7142857142858" y1="200" x2="800.0000000000001" y2="314.2857142857143"></line><line x1="800.0000000000001" y1="200" x2="685.7142857142858" y2="314.2857142857143"></line><line x1="800.0000000000001" y1="200" x2="914.2857142857144" y2="314.2857142857143"></line><line x1="914.2857142857144" y1="200" x2="800.0000000000001" y2="314.2857142857143"></line><line x1="0" y1="266.6666666666667" x2="114.28571428571429" y2="380.95238095238096"></line><line x1="114.28571428571429" y1="266.6666666666667" x2="0" y2="380.95238095238096"></line><line x1="114.28571428571429" y1="266.6666666666667" x2="228.57142857142858" y2="380.95238095238096"></line><line x1="228.57142857142858" y1="266.6666666666667" x2="114.28571428571429" y2="380.95238095238096"></line><line x1="228.57142857142858" y1="266.6666666666667" x2="342.8571428571429" y2="380.95238095238096"></line><line x1="342.8571428571429" y1="266.6666666666667" x2="228.57142857142858" y2="380.95238095238096"></line><line x1="342.8571428571429" y1="266.6666666666667" x2="457.14285714285717" y2="380.95238095238096"></line><line x1="457.14285714285717" y1="266.6666666666667" x2="342.8571428571429" y2="380.95238095238096"></line><line x1="457.14285714285717" y1="266.6666666666667" x2="571.4285714285714" y2="380.95238095238096"></line><line x1="571.4285714285714" y1="266.6666666666667" x2="457.14285714285717" y2="380.95238095238096"></line><line x1="571.4285714285714" y1="266.6666666666667" x2="685.7142857142858" y2="380.95238095238096"></line><line x1="685.7142857142858" y1="266.6666666666667" x2="571.4285714285714" y2="380.95238095238096"></line><line x1="685.7142857142858" y1="266.6666666666667" x2="800.0000000000001" y2="380.95238095238096"></line><line x1="800.0000000000001" y1="266.6666666666667" x2="685.7142857142858" y2="380.95238095238096"></line><line x1="800.0000000000001" y1="266.6666666666667" x2="914.2857142857144" y2="380.95238095238096"></line><line x1="914.2857142857144" y1="266.6666666666667" x2="800.0000000000001" y2="380.95238095238096"></line><line x1="0" y1="333.33333333333337" x2="114.28571428571429" y2="447.61904761904765"></line><line x1="114.28571428571429" y1="333.33333333333337" x2="0" y2="447.61904761904765"></line><line x1="114.28571428571429" y1="333.33333333333337" x2="228.57142857142858" y2="447.61904761904765"></line><line x1="228.57142857142858" y1="333.33333333333337" x2="114.28571428571429" y2="447.61904761904765"></line><line x1="228.57142857142858" y1="333.33333333333337" x2="342.8571428571429" y2="447.61904761904765"></line><line x1="342.8571428571429" y1="333.33333333333337" x2="228.57142857142858" y2="447.61904761904765"></line><line x1="342.8571428571429" y1="333.33333333333337" x2="457.14285714285717" y2="447.61904761904765"></line><line x1="457.14285714285717" y1="333.33333333333337" x2="342.8571428571429" y2="447.61904761904765"></line><line x1="457.14285714285717" y1="333.33333333333337" x2="571.4285714285714" y2="447.61904761904765"></line><line x1="571.4285714285714" y1="333.33333333333337" x2="457.14285714285717" y2="447.61904761904765"></line><line x1="571.4285714285714" y1="333.33333333333337" x2="685.7142857142858" y2="447.61904761904765"></line><line x1="685.7142857142858" y1="333.33333333333337" x2="571.4285714285714" y2="447.61904761904765"></line><line x1="685.7142857142858" y1="333.33333333333337" x2="800.0000000000001" y2="447.61904761904765"></line><line x1="800.0000000000001" y1="333.33333333333337" x2="685.7142857142858" y2="447.61904761904765"></line><line x1="800.0000000000001" y1="333.33333333333337" x2="914.2857142857144" y2="447.61904761904765"></line><line x1="914.2857142857144" y1="333.33333333333337" x2="800.0000000000001" y2="447.61904761904765"></line><line x1="0" y1="400.00000000000006" x2="114.28571428571429" y2="514.2857142857143"></line><line x1="114.28571428571429" y1="400.00000000000006" x2="0" y2="514.2857142857143"></line><line x1="114.28571428571429" y1="400.00000000000006" x2="228.57142857142858" y2="514.2857142857143"></line><line x1="228.57142857142858" y1="400.00000000000006" x2="114.28571428571429" y2="514.2857142857143"></line><line x1="228.57142857142858" y1="400.00000000000006" x2="342.8571428571429" y2="514.2857142857143"></line><line x1="342.8571428571429" y1="400.00000000000006" x2="228.57142857142858" y2="514.2857142857143"></line><line x1="342.8571428571429" y1="400.00000000000006" x2="457.14285714285717" y2="514.2857142857143"></line><line x1="457.14285714285717" y1="400.00000000000006" x2="342.8571428571429" y2="514.2857142857143"></line><line x1="457.14285714285717" y1="400.00000000000006" x2="571.4285714285714" y2="514.2857142857143"></line><line x1="571.4285714285714" y1="400.00000000000006" x2="457.14285714285717" y2="514.2857142857143"></line><line x1="571.4285714285714" y1="400.00000000000006" x2="685.7142857142858" y2="514.2857142857143"></line><line x1="685.7142857142858" y1="400.00000000000006" x2="571.4285714285714" y2="514.2857142857143"></line><line x1="685.7142857142858" y1="400.00000000000006" x2="800.0000000000001" y2="514.2857142857143"></line><line x1="800.0000000000001" y1="400.00000000000006" x2="685.7142857142858" y2="514.2857142857143"></line><line x1="800.0000000000001" y1="400.00000000000006" x2="914.2857142857144" y2="514.2857142857143"></line><line x1="914.2857142857144" y1="400.00000000000006" x2="800.0000000000001" y2="514.2857142857143"></line><line x1="0" y1="466.66666666666674" x2="114.28571428571429" y2="580.9523809523811"></line><line x1="114.28571428571429" y1="466.66666666666674" x2="0" y2="580.9523809523811"></line><line x1="114.28571428571429" y1="466.66666666666674" x2="228.57142857142858" y2="580.9523809523811"></line><line x1="228.57142857142858" y1="466.66666666666674" x2="114.28571428571429" y2="580.9523809523811"></line><line x1="228.57142857142858" y1="466.66666666666674" x2="342.8571428571429" y2="580.9523809523811"></line><line x1="342.8571428571429" y1="466.66666666666674" x2="228.57142857142858" y2="580.9523809523811"></line><line x1="342.8571428571429" y1="466.66666666666674" x2="457.14285714285717" y2="580.9523809523811"></line><line x1="457.14285714285717" y1="466.66666666666674" x2="342.8571428571429" y2="580.9523809523811"></line><line x1="457.14285714285717" y1="466.66666666666674" x2="571.4285714285714" y2="580.9523809523811"></line><line x1="571.4285714285714" y1="466.66666666666674" x2="457.14285714285717" y2="580.9523809523811"></line><line x1="571.4285714285714" y1="466.66666666666674" x2="685.7142857142858" y2="580.9523809523811"></line><line x1="685.7142857142858" y1="466.66666666666674" x2="571.4285714285714" y2="580.9523809523811"></line><line x1="685.7142857142858" y1="466.66666666666674" x2="800.0000000000001" y2="580.9523809523811"></line><line x1="800.0000000000001" y1="466.66666666666674" x2="685.7142857142858" y2="580.9523809523811"></line><line x1="800.0000000000001" y1="466.66666666666674" x2="914.2857142857144" y2="580.9523809523811"></line><line x1="914.2857142857144" y1="466.66666666666674" x2="800.0000000000001" y2="580.9523809523811"></line><line x1="0" y1="533.3333333333334" x2="114.28571428571429" y2="647.6190476190477"></line><line x1="114.28571428571429" y1="533.3333333333334" x2="0" y2="647.6190476190477"></line><line x1="114.28571428571429" y1="533.3333333333334" x2="228.57142857142858" y2="647.6190476190477"></line><line x1="228.57142857142858" y1="533.3333333333334" x2="114.28571428571429" y2="647.6190476190477"></line><line x1="228.57142857142858" y1="533.3333333333334" x2="342.8571428571429" y2="647.6190476190477"></line><line x1="342.8571428571429" y1="533.3333333333334" x2="228.57142857142858" y2="647.6190476190477"></line><line x1="342.8571428571429" y1="533.3333333333334" x2="457.14285714285717" y2="647.6190476190477"></line><line x1="457.14285714285717" y1="533.3333333333334" x2="342.8571428571429" y2="647.6190476190477"></line><line x1="457.14285714285717" y1="533.3333333333334" x2="571.4285714285714" y2="647.6190476190477"></line><line x1="571.4285714285714" y1="533.3333333333334" x2="457.14285714285717" y2="647.6190476190477"></line><line x1="571.4285714285714" y1="533.3333333333334" x2="685.7142857142858" y2="647.6190476190477"></line><line x1="685.7142857142858" y1="533.3333333333334" x2="571.4285714285714" y2="647.6190476190477"></line><line x1="685.7142857142858" y1="533.3333333333334" x2="800.0000000000001" y2="647.6190476190477"></line><line x1="800.0000000000001" y1="533.3333333333334" x2="685.7142857142858" y2="647.6190476190477"></line><line x1="800.0000000000001" y1="533.3333333333334" x2="914.2857142857144" y2="647.6190476190477"></line><line x1="914.2857142857144" y1="533.3333333333334" x2="800.0000000000001" y2="647.6190476190477"></line><line x1="0" y1="600" x2="114.28571428571429" y2="714.2857142857143"></line><line x1="114.28571428571429" y1="600" x2="0" y2="714.2857142857143"></line><line x1="114.28571428571429" y1="600" x2="228.57142857142858" y2="714.2857142857143"></line><line x1="228.57142857142858" y1="600" x2="114.28571428571429" y2="714.2857142857143"></line><line x1="228.57142857142858" y1="600" x2="342.8571428571429" y2="714.2857142857143"></line><line x1="342.8571428571429" y1="600" x2="228.57142857142858" y2="714.2857142857143"></line><line x1="342.8571428571429" y1="600" x2="457.14285714285717" y2="714.2857142857143"></line><line x1="457.14285714285717" y1="600" x2="342.8571428571429" y2="714.2857142857143"></line><line x1="457.14285714285717" y1="600" x2="571.4285714285714" y2="714.2857142857143"></line><line x1="571.4285714285714" y1="600" x2="457.14285714285717" y2="714.2857142857143"></line><line x1="571.4285714285714" y1="600" x2="685.7142857142858" y2="714.2857142857143"></line><line x1="685.7142857142858" y1="600" x2="571.4285714285714" y2="714.2857142857143"></line><line x1="685.7142857142858" y1="600" x2="800.0000000000001" y2="714.2857142857143"></line><line x1="800.0000000000001" y1="600" x2="685.7142857142858" y2="714.2857142857143"></line><line x1="800.0000000000001" y1="600" x2="914.2857142857144" y2="714.2857142857143"></line><line x1="914.2857142857144" y1="600" x2="800.0000000000001" y2="714.2857142857143"></line><line x1="0" y1="666.6666666666666" x2="114.28571428571429" y2="780.952380952381"></line><line x1="114.28571428571429" y1="666.6666666666666" x2="0" y2="780.952380952381"></line><line x1="114.28571428571429" y1="666.6666666666666" x2="228.57142857142858" y2="780.952380952381"></line><line x1="228.57142857142858" y1="666.6666666666666" x2="114.28571428571429" y2="780.952380952381"></line><line x1="228.57142857142858" y1="666.6666666666666" x2="342.8571428571429" y2="780.952380952381"></line><line x1="342.8571428571429" y1="666.6666666666666" x2="228.57142857142858" y2="780.952380952381"></line><line x1="342.8571428571429" y1="666.6666666666666" x2="457.14285714285717" y2="780.952380952381"></line><line x1="457.14285714285717" y1="666.6666666666666" x2="342.8571428571429" y2="780.952380952381"></line><line x1="457.14285714285717" y1="666.6666666666666" x2="571.4285714285714" y2="780.952380952381"></line><line x1="571.4285714285714" y1="666.6666666666666" x2="457.14285714285717" y2="780.952380952381"></line><line x1="571.4285714285714" y1="666.6666666666666" x2="685.7142857142858" y2="780.952380952381"></line><line x1="685.7142857142858" y1="666.6666666666666" x2="571.4285714285714" y2="780.952380952381"></line><line x1="685.7142857142858" y1="666.6666666666666" x2="800.0000000000001" y2="780.952380952381"></line><line x1="800.0000000000001" y1="666.6666666666666" x2="685.7142857142858" y2="780.952380952381"></line><line x1="800.0000000000001" y1="666.6666666666666" x2="914.2857142857144" y2="780.952380952381"></line><line x1="914.2857142857144" y1="666.6666666666666" x2="800.0000000000001" y2="780.952380952381"></line><line x1="0" y1="733.3333333333333" x2="114.28571428571429" y2="847.6190476190476"></line><line x1="114.28571428571429" y1="733.3333333333333" x2="0" y2="847.6190476190476"></line><line x1="114.28571428571429" y1="733.3333333333333" x2="228.57142857142858" y2="847.6190476190476"></line><line x1="228.57142857142858" y1="733.3333333333333" x2="114.28571428571429" y2="847.6190476190476"></line><line x1="228.57142857142858" y1="733.3333333333333" x2="342.8571428571429" y2="847.6190476190476"></line><line x1="342.8571428571429" y1="733.3333333333333" x2="228.57142857142858" y2="847.6190476190476"></line><line x1="342.8571428571429" y1="733.3333333333333" x2="457.14285714285717" y2="847.6190476190476"></line><line x1="457.14285714285717" y1="733.3333333333333" x2="342.8571428571429" y2="847.6190476190476"></line><line x1="457.14285714285717" y1="733.3333333333333" x2="571.4285714285714" y2="847.6190476190476"></line><line x1="571.4285714285714" y1="733.3333333333333" x2="457.14285714285717" y2="847.6190476190476"></line><line x1="571.4285714285714" y1="733.3333333333333" x2="685.7142857142858" y2="847.6190476190476"></line><line x1="685.7142857142858" y1="733.3333333333333" x2="571.4285714285714" y2="847.6190476190476"></line><line x1="685.7142857142858" y1="733.3333333333333" x2="800.0000000000001" y2="847.6190476190476"></line><line x1="800.0000000000001" y1="733.3333333333333" x2="685.7142857142858" y2="847.6190476190476"></line><line x1="800.0000000000001" y1="733.3333333333333" x2="914.2857142857144" y2="847.6190476190476"></line><line x1="914.2857142857144" y1="733.3333333333333" x2="800.0000000000001" y2="847.6190476190476"></line><line x1="0" y1="799.9999999999999" x2="114.28571428571429" y2="914.2857142857142"></line><line x1="114.28571428571429" y1="799.9999999999999" x2="0" y2="914.2857142857142"></line><line x1="114.28571428571429" y1="799.9999999999999" x2="228.57142857142858" y2="914.2857142857142"></line><line x1="228.57142857142858" y1="799.9999999999999" x2="114.28571428571429" y2="914.2857142857142"></line><line x1="228.57142857142858" y1="799.9999999999999" x2="342.8571428571429" y2="914.2857142857142"></line><line x1="342.8571428571429" y1="799.9999999999999" x2="228.57142857142858" y2="914.2857142857142"></line><line x1="342.8571428571429" y1="799.9999999999999" x2="457.14285714285717" y2="914.2857142857142"></line><line x1="457.14285714285717" y1="799.9999999999999" x2="342.8571428571429" y2="914.2857142857142"></line><line x1="457.14285714285717" y1="799.9999999999999" x2="571.4285714285714" y2="914.2857142857142"></line><line x1="571.4285714285714" y1="799.9999999999999" x2="457.14285714285717" y2="914.2857142857142"></line><line x1="571.4285714285714" y1="799.9999999999999" x2="685.7142857142858" y2="914.2857142857142"></line><line x1="685.7142857142858" y1="799.9999999999999" x2="571.4285714285714" y2="914.2857142857142"></line><line x1="685.7142857142858" y1="799.9999999999999" x2="800.0000000000001" y2="914.2857142857142"></line><line x1="800.0000000000001" y1="799.9999999999999" x2="685.7142857142858" y2="914.2857142857142"></line><line x1="800.0000000000001" y1="799.9999999999999" x2="914.2857142857144" y2="914.2857142857142"></line><line x1="914.2857142857144" y1="799.9999999999999" x2="800.0000000000001" y2="914.2857142857142"></line></g></svg>